<?xml version="1.0" standalone="no"?>
<!DOCTYPE svg PUBLIC "-//W3C//DTD SVG 20010904//EN"
 "http://www.w3.org/TR/2001/REC-SVG-20010904/DTD/svg10.dtd">
<svg version="1.0" xmlns="http://www.w3.org/2000/svg"
 width="866.000000pt" height="650.000000pt" viewBox="0 0 866.000000 650.000000"
 preserveAspectRatio="xMidYMid meet">
<metadata>
Created by potrace 1.16, written by Peter Selinger 2001-2019
</metadata>
<g transform="translate(0.000000,650.000000) scale(0.100000,-0.100000)"
fill="#000000" stroke="none">
<path d="M3882 5843 c-22 -49 -187 -407 -367 -798 -180 -390 -401 -870 -491
-1066 -90 -196 -164 -363 -164 -371 0 -8 34 -89 76 -179 42 -90 251 -544 464
-1009 213 -465 416 -907 451 -982 l64 -137 3 442 2 442 -21 18 c-13 10 -30 15
-40 12 -12 -4 -21 -1 -25 10 -4 10 -13 13 -25 10 -11 -4 -19 -2 -19 4 0 6 -9
11 -20 11 -14 0 -20 7 -20 21 0 14 -5 19 -17 17 -14 -3 -30 19 -67 87 l-49 90
12 85 c28 182 40 298 41 368 0 39 3 72 6 72 3 0 30 -12 60 -27 89 -43 155
-128 184 -233 20 -75 22 -78 30 -50 5 14 8 76 9 138 l1 113 62 -33 c78 -41
178 -139 213 -209 31 -59 69 -201 90 -333 12 -72 20 -95 42 -119 24 -25 25
-28 6 -18 -28 14 -33 14 -33 -4 0 -26 -31 -105 -61 -156 -71 -121 -189 -358
-189 -380 0 -13 21 -69 46 -124 63 -137 68 -157 51 -198 -8 -18 -49 -79 -90
-135 -83 -112 -96 -146 -74 -207 21 -56 132 -302 217 -480 l71 -149 73 164
c41 91 94 212 120 269 25 57 39 98 31 91 -8 -6 -18 -9 -23 -6 -6 3 -31 -6 -57
-20 -66 -37 -164 -44 -227 -16 -68 30 -140 147 -122 198 4 10 49 79 101 153
110 158 111 161 57 318 -26 75 -35 116 -31 140 6 35 74 150 183 308 95 138
106 166 112 270 3 55 -2 144 -13 229 -20 159 -16 226 20 295 21 43 115 141
135 141 4 0 7 -42 6 -92 -2 -142 22 -218 38 -121 16 100 99 213 189 258 69 34
77 33 70 -11 -5 -31 -2 -40 17 -54 18 -14 24 -27 23 -54 -1 -25 3 -36 13 -36
8 0 14 -7 14 -15 0 -18 -5 -19 -32 -4 -17 9 -20 9 -15 -4 3 -8 1 -19 -4 -24
-6 -6 -4 -47 6 -114 32 -201 33 -185 -23 -269 -28 -41 -64 -88 -81 -104 -17
-17 -31 -40 -31 -52 0 -28 -65 -71 -74 -48 -3 8 -19 14 -36 14 l-30 0 0 -216
c0 -207 1 -217 21 -235 11 -10 18 -22 15 -28 -12 -19 15 -23 41 -6 29 20 43 9
43 -36 0 -14 6 -33 13 -43 11 -15 30 19 149 281 75 164 193 420 261 568 68
149 212 462 320 697 109 235 197 433 197 438 0 6 -148 331 -329 723 -180 392
-419 911 -531 1155 -112 243 -206 442 -210 442 -15 0 -23 -37 -29 -140 -6 -96
-9 -109 -37 -150 -31 -45 -60 -117 -51 -126 3 -3 15 9 27 26 28 39 77 65 95
50 26 -22 57 -116 139 -422 86 -321 124 -483 151 -646 21 -119 14 -141 -70
-223 -64 -62 -86 -96 -99 -153 l-7 -30 46 43 c78 72 160 96 213 62 7 -4 32
-103 57 -227 80 -394 61 -459 -135 -459 -95 0 -155 17 -171 47 -18 33 14 100
73 153 40 36 46 45 29 45 -35 0 -114 -31 -159 -62 -47 -32 -113 -126 -133
-186 -6 -20 -16 -41 -21 -47 -15 -16 2 73 28 146 13 37 24 70 24 73 0 14 -63
-30 -97 -68 -19 -21 -47 -65 -63 -97 l-28 -59 -12 47 c-18 75 -65 162 -142
264 -108 143 -128 178 -128 222 0 86 44 131 202 206 198 94 270 183 272 336 1
68 -3 88 -25 130 -33 65 -100 115 -206 155 -114 43 -111 66 19 139 61 34 108
82 108 109 -1 15 -2 15 -11 -1 -5 -9 -29 -27 -52 -39 -36 -18 -60 -22 -160
-22 -115 -1 -119 0 -137 24 -11 14 -31 62 -46 107 -21 65 -26 95 -22 151 2 39
0 68 -4 66 -4 -3 -19 -25 -33 -49 -25 -42 -26 -50 -23 -167 l3 -124 -44 -84
c-40 -77 -43 -88 -37 -135 5 -48 3 -56 -26 -96 -40 -54 -43 -108 -9 -163 24
-39 51 -48 51 -17 0 39 32 107 68 144 108 112 283 127 403 34 65 -49 82 -79
87 -146 8 -113 -49 -171 -243 -246 -150 -58 -188 -78 -241 -127 -82 -76 -119
-195 -95 -307 6 -29 32 -109 57 -178 25 -69 43 -127 41 -129 -2 -3 -16 11 -31
30 -23 30 -105 96 -119 96 -3 0 7 -28 21 -62 14 -35 27 -88 29 -118 l3 -55
-23 60 c-54 142 -138 215 -274 239 -34 6 -46 -9 -15 -18 30 -10 92 -77 100
-110 21 -75 -31 -111 -163 -111 -147 0 -191 37 -189 160 1 66 74 465 94 512
24 56 138 33 218 -43 25 -24 46 -43 47 -41 1 1 -3 22 -8 46 -7 37 -23 58 -87
122 -49 49 -81 89 -85 108 -12 56 70 442 186 873 87 323 117 367 193 283 18
-19 35 -35 39 -35 11 0 -10 55 -48 123 -34 63 -38 76 -40 157 -3 91 -10 130
-24 130 -5 0 -26 -39 -49 -87z m1131 -718 c68 -185 531 -1430 545 -1466 11
-27 46 -39 122 -39 59 0 19 -19 -48 -22 l-63 -3 -95 -210 c-52 -115 -131 -292
-176 -392 -45 -101 -83 -181 -84 -180 -2 1 60 173 137 382 77 209 140 389 140
400 1 14 -487 1531 -539 1674 -3 9 -3 14 1 11 3 -3 30 -73 60 -155z m-1372
-61 c-22 -65 -98 -299 -169 -519 -72 -220 -174 -534 -227 -698 -54 -164 -95
-306 -92 -315 2 -9 63 -177 135 -372 72 -195 133 -364 136 -375 11 -34 -65
128 -213 456 l-143 317 202 543 c111 299 247 667 302 816 56 150 103 271 105
270 1 -2 -15 -57 -36 -123z m229 -1465 c14 -53 -10 -106 -60 -132 -47 -25
-155 -19 -227 13 -73 31 -90 53 -27 34 55 -16 153 -18 205 -4 53 15 81 50 81
100 -1 49 14 44 28 -11z m915 -4 c0 -79 59 -115 190 -114 33 0 78 6 100 14 54
19 55 12 3 -18 -138 -80 -298 -55 -324 50 -5 18 20 113 29 113 1 0 2 -20 2
-45z m-831 -99 c21 -45 20 -93 -3 -136 -42 -81 -132 -102 -227 -55 -51 25
-194 139 -194 154 0 5 38 -11 84 -34 46 -24 104 -47 129 -50 91 -14 165 37
174 119 6 51 13 52 37 2z m780 -88 c49 -75 177 -68 321 17 l60 36 -73 -71
c-84 -81 -173 -130 -238 -130 -110 0 -182 135 -122 230 l22 35 7 -46 c4 -26
14 -58 23 -71z m-1121 -172 c56 -68 93 -92 224 -147 65 -27 147 -69 183 -93
68 -47 142 -116 123 -116 -6 0 -16 7 -23 16 -29 33 -150 94 -239 119 -165 46
-264 110 -330 213 -35 56 -67 148 -74 216 -5 49 -4 49 47 -56 28 -58 68 -126
89 -152z m1527 131 c-38 -183 -180 -321 -380 -367 -70 -16 -154 -53 -199 -87
l-34 -26 24 32 c47 64 156 130 284 171 95 30 144 60 198 120 43 47 106 175
108 217 0 10 3 13 6 6 2 -7 0 -37 -7 -66z m-725 -628 c-14 -74 -29 -142 -33
-151 -5 -13 -25 23 -69 124 -34 78 -61 144 -58 146 2 2 25 -28 51 -67 26 -39
50 -71 55 -71 4 0 22 36 40 80 18 44 34 78 36 76 2 -2 -8 -63 -22 -137z"/>
</g>
</svg>
